<?xml version="1.0" encoding="iso-8859-1"?>
<!-- Generator: Adobe Illustrator 21.0.0, SVG Export Plug-In . SVG Version: 6.00 Build 0)  -->
<svg version="1.1" id="Layer_1" xmlns="http://www.w3.org/2000/svg" xmlns:xlink="http://www.w3.org/1999/xlink" x="0px" y="0px"
	 viewBox="0 0 100.899 100.914" style="enable-background:new 0 0 100.899 100.914;" xml:space="preserve">
<g>
	<path style="fill:#231F20;" d="M89.847,55.667c-1.022-1.163-2.432-1.857-3.97-1.955c-1.53-0.096-2.996,0.407-4.145,1.423
		L68.984,66.513c-0.037-0.216-0.082-0.422-0.134-0.611c-0.565-2.043-2.051-3.458-3.276-3.957c-2.528-1.021-6.023-0.543-9.404-0.081
		c-2.238,0.306-4.551,0.623-5.998,0.364c-0.801-0.143-1.621-0.505-2.57-0.923c-2.571-1.134-6.093-2.686-12.64-1.266
		c-3.49,0.762-6.189,2.712-8.019,4.468v-3.002c0-0.829-0.671-1.5-1.5-1.5H11.648c-0.829,0-1.5,0.671-1.5,1.5v33.814
		c0,0.829,0.671,1.5,1.5,1.5h13.795c0.829,0,1.5-0.671,1.5-1.5v-6.91c3.318,0.738,10.396,2.153,15.85,2.153
		c6.822,0,15.18-1.548,20.323-3.764c9.469-4.073,25.061-21.649,26.323-23.083c1.106-1.01,1.762-2.387,1.849-3.888
		C91.376,58.298,90.864,56.819,89.847,55.667z M23.944,93.82H13.149V63.006h10.795V93.82z M87.379,61.534
		c-0.048,0.042-0.093,0.088-0.136,0.136c-0.162,0.185-16.265,18.481-25.313,22.373c-4.81,2.072-12.679,3.52-19.137,3.52
		c-5.486,0-13.019-1.587-15.85-2.23V69.057c0.818-1.152,3.887-5.044,8.656-6.085c5.593-1.213,8.356,0.004,10.792,1.079
		c1.079,0.476,2.098,0.925,3.253,1.131c1.912,0.342,4.351,0.008,6.932-0.345c2.854-0.39,6.086-0.832,7.87-0.111
		c0.452,0.184,1.219,0.918,1.512,1.976c0.289,1.047,0.032,2.119-0.757,3.187l-1.256,1.121c-0.017,0.016-0.03,0.034-0.046,0.05
		c-4.123,2.833-15.211,6.205-20.107,5.831c-0.825-0.063-1.547,0.556-1.61,1.381s0.555,1.546,1.381,1.61
		c0.307,0.023,0.634,0.035,0.98,0.035c6.571,0,19.584-4.139,22.838-7.952l16.342-14.586c0.542-0.479,1.237-0.717,1.963-0.672
		c0.737,0.047,1.414,0.381,1.908,0.943c0.493,0.558,0.74,1.27,0.698,2.004C88.251,60.384,87.926,61.051,87.379,61.534z"/>
	<path style="fill:#231F20;" d="M30.192,21.915h3.322V52.19c0,0.829,0.671,1.5,1.5,1.5H66.79c0.829,0,1.5-0.671,1.5-1.5V21.915
		h3.329c0.646,0,1.219-0.414,1.423-1.026c0.205-0.612-0.006-1.287-0.523-1.674L51.541,3.481c-0.538-0.404-1.28-0.399-1.814,0.011
		L29.279,19.226c-0.509,0.392-0.712,1.064-0.505,1.672C28.979,21.506,29.55,21.915,30.192,21.915z M50.652,6.565l16.466,12.35
		h-0.329c-0.829,0-1.5,0.671-1.5,1.5V50.69H36.513V20.415c0-0.829-0.671-1.5-1.5-1.5H34.6L50.652,6.565z"/>
	<path style="fill:#231F20;" d="M45.154,43.55h11.495c0.829,0,1.5-0.671,1.5-1.5V24.855c0-0.829-0.671-1.5-1.5-1.5H45.154
		c-0.829,0-1.5,0.671-1.5,1.5V42.05C43.654,42.878,44.326,43.55,45.154,43.55z M46.654,26.354h8.495v14.195h-8.495V26.354z"/>
</g>
</svg>
